# Blender v2.93.4 OBJ File: 'uploads_files_1022904_Low-poly+Crystals.blend'
# www.blender.org
mtllib crystal1.mtl
o Cylinder
v 1.012975 -1.134360 -0.107749
v -0.027205 -1.330593 0.390433
v -0.661426 -1.492717 -0.034132
v -0.599253 -1.458608 -0.956880
v 0.164122 -1.262375 -1.455061
v 0.841705 -1.100250 -1.030496
v -1.124882 5.002159 0.546573
v -1.148941 4.822816 -0.395259
v -1.156241 5.172869 0.179442
v -1.117605 5.016859 0.552168
v -0.423434 5.451770 -0.854752
v -0.556862 5.559246 -0.763198
v 0.454778 4.790009 -0.503850
v 0.518499 4.516131 0.397460
v -0.503729 6.140186 0.021176
v 0.005174 5.497441 -0.634409
v -0.279629 4.717030 0.931149
v -0.895775 5.712487 0.359950
v -0.954800 5.504395 0.444801
v -0.887115 5.040631 0.670555
v -0.552972 6.177929 0.208939
v 0.010649 5.215871 0.755114
v -0.055492 -0.058163 1.005756
v -0.325369 -0.104753 1.194581
v -0.565829 -0.018906 1.098036
v -0.536411 0.113532 0.812666
v -0.342222 0.038092 0.620941
v -0.101763 -0.047755 0.717486
v 0.298729 3.168012 3.018983
v 0.303284 3.159831 3.394106
v 0.595321 3.312309 2.900733
v 0.866682 3.339480 3.078914
v 0.621412 3.513453 3.071033
v 0.679061 2.628423 2.946334
v 0.496258 2.900303 3.365198
v 0.403981 3.535749 3.548682
v 0.374527 3.424032 3.529209
v 0.491747 2.913119 3.369640
v 0.832834 3.952109 3.531945
v 0.972792 3.722337 3.435763
v 0.921796 3.528912 3.402048
v 0.734531 3.096514 3.347184
v 0.594590 3.309755 2.898955
v 0.545366 3.432044 3.058766
v 0.613728 3.314152 2.912819
v 0.880054 3.387728 3.123884
v 0.932292 3.568723 3.408987
v 0.616707 3.742279 3.540380
v 0.566897 0.576860 0.833217
v 0.804693 0.603528 0.672226
v 1.125992 0.501822 0.755618
v 1.209496 0.373447 1.000002
v 0.971701 0.346781 1.160993
v 0.650401 0.448488 1.077601
v 1.881751 4.323718 2.505002
v 1.266443 4.114483 2.452481
v 1.622273 3.636744 2.666896
v 1.326748 3.868790 2.643164
v 1.876698 3.747505 2.544397
v 1.823754 4.275737 2.903424
v 1.404029 4.593182 2.791099
v 1.452797 4.717774 2.915305
v 1.519793 4.219811 2.327495
v 1.884124 4.349033 2.515587
v 1.902931 5.348104 3.091280
v 1.905778 4.408029 2.564069
v 1.961400 5.113607 3.000498
v 1.977716 4.636083 2.743178
v 1.712323 4.657946 2.568344
v 1.344757 4.286669 2.498324
v 1.447961 4.679912 2.802371
v 1.508193 4.431161 2.464007
v 1.733695 4.924022 2.733204
v 1.784845 5.109407 2.873635
v 1.906561 5.418837 3.152664
v 1.943228 5.325618 3.138038
v 1.872977 4.906207 3.092323
v 1.720134 5.288293 3.152488
v 1.733707 5.314738 3.154589
v 1.840542 5.435315 3.160333
v 0.104613 -0.911271 -0.703961
v 0.961826 -1.040275 -0.658294
v 0.649969 -1.059251 0.294780
v 0.103775 -0.911271 0.632014
v -0.430190 -0.763292 0.297387
v -0.430190 -0.763292 -0.370178
v 3.069144 3.232107 0.631170
v 3.788107 4.715864 -0.113081
v 4.199452 4.751783 -0.110228
v 3.560918 3.023988 -0.370178
v 3.724544 3.252680 0.297387
v 3.975786 3.810287 0.374346
v 4.136792 4.224012 0.164731
v 2.629170 3.512624 0.297387
v 2.738861 3.665933 -0.370178
v 3.358685 4.303493 -0.455441
v 3.777304 4.709600 -0.118269
v 3.389544 4.334562 -0.448832
v 3.769241 4.700617 -0.106042
v 2.889590 3.775945 0.334907
v 4.057081 4.182905 -0.483299
v 3.959675 3.966887 -0.513904
v 3.458396 4.307558 -0.480084
v 2.712083 2.733061 -0.703961
v 3.382950 4.244574 -0.490045
v 4.095659 4.383665 -0.456001
v 0.920656 -1.343216 -1.422918
v 0.023129 -1.375480 -0.589838
v -0.115644 -1.379846 -0.018871
v -0.462791 -1.512990 0.216625
v -0.908532 -1.646136 -0.022563
v -0.632664 -1.651883 -0.825141
v -2.133131 3.092985 -0.501817
v -3.282324 3.559997 -0.018271
v -3.499158 4.031188 -0.217202
v -3.378386 4.053821 0.049626
v -3.434428 3.890525 -0.501817
v -2.755265 4.444913 -0.267951
v -3.098458 5.021685 -0.299341
v -3.411137 4.194093 0.066085
v -3.424478 3.940857 -0.518955
v -2.816535 3.562934 -0.743591
v -2.209199 3.258286 -0.018271
v -2.503195 2.882032 0.223502
v -2.585936 4.076953 -0.143525
v -3.125917 3.873683 0.137391
v -3.623983 5.022987 0.028094
v -3.114919 4.759862 -0.124873
v -3.291178 5.277925 -0.346528
v -3.226507 5.208852 -0.301015
v -3.478185 5.365395 -0.177443
v -3.526073 4.089674 -0.251936
v -3.519059 4.074434 -0.400513
v -3.706717 5.027988 0.011804
v -3.707892 5.166611 0.006492
v -3.643372 5.468165 -0.160554
v -2.887235 3.961493 -0.685256
v -3.449386 4.141554 -0.499788
v -2.891267 3.908924 -0.699864
v -3.374507 5.339520 -0.388664
v -3.632247 5.484988 -0.285013
v -3.484349 4.247781 -0.460133
v -1.427899 -0.656952 -0.670752
v -1.129054 -0.742368 -0.305382
v -1.289406 -0.822166 0.086201
v -1.748601 -0.816548 0.112415
v -2.047446 -0.731131 -0.252954
v -1.887094 -0.651333 -0.644538
v -2.975857 3.181525 3.180987
v -3.095740 2.683930 2.368148
v -3.311563 3.756922 2.955829
v -3.045388 4.192132 3.504942
v -3.241226 3.841817 3.074503
v -3.012535 3.240730 3.197178
v -3.257352 3.762827 3.020199
v -3.197654 3.252467 2.919271
v -3.077955 4.300902 3.489264
v -3.136277 4.150216 3.350564
v -2.506482 2.856782 2.026085
v -2.617722 3.672460 2.872063
v -2.869738 3.540129 2.557910
v -2.888258 3.959767 3.018493
v -2.648935 1.830537 1.260329
v -3.308922 3.686372 2.866283
v -3.302618 3.204824 2.469450
v -2.940043 3.436172 2.483015
v -2.323173 3.147749 2.680334
v -2.489695 3.088058 3.087348
v -2.589004 3.302514 3.253549
v -2.493648 3.575932 2.947261
v -2.747337 3.908318 3.437771
v 0.400793 -1.008937 0.916405
v 0.196826 -1.155568 1.117627
v -0.084753 -1.257608 1.009686
v -0.162366 -1.213016 0.700524
v 0.041601 -1.066385 0.499303
v 0.323180 -0.964346 0.607244
v -1.599648 1.896995 1.509911
v -1.739176 3.116192 1.768155
v -1.219595 1.909303 1.915265
v -1.580504 1.978919 1.851998
v -1.779990 2.382130 1.882977
v -1.810960 2.721454 1.937822
v -1.441657 2.143109 1.334580
v -1.213258 2.360222 1.472469
v -1.427706 2.855756 1.683371
v -1.733686 3.112131 1.764967
v -1.442814 2.878274 1.692198
v -1.735435 3.103480 1.760510
v -1.561697 2.336761 1.411887
v -1.436023 2.864909 1.731075
v -0.863377 1.726491 1.628306
v -1.404543 2.818423 1.706910
v -1.817599 3.150216 1.936758
v -1.821430 3.138610 1.945472
v -1.631116 2.762071 1.982965
v -1.353221 2.354245 1.967632
v -1.471791 2.882068 1.799550
v -1.275173 2.377089 1.895521
vn 0.2408 -0.9705 -0.0100
vn -0.4577 0.3343 0.8239
vn -0.9966 -0.0750 0.0331
vn 0.8300 0.5473 0.1076
vn -0.5511 0.0263 -0.8340
vn 0.2206 0.7766 -0.5901
vn -0.1648 0.4121 0.8961
vn 0.9806 0.0804 -0.1790
vn 0.4440 0.1183 -0.8882
vn -0.9030 0.3549 0.2421
vn -0.8105 0.4956 -0.3122
vn -0.4453 -0.1112 0.8885
vn 0.5460 -0.0520 0.8362
vn -0.3437 -0.9388 0.0213
vn 0.4169 0.5552 -0.7197
vn 0.4719 0.4088 -0.7811
vn -0.5406 0.5795 -0.6099
vn 0.2622 -0.2324 0.9366
vn 0.8380 -0.4088 0.3614
vn -0.3468 -0.3512 0.8697
vn -0.6634 0.6699 -0.3333
vn 0.9676 -0.2521 -0.0172
vn -0.9676 0.2521 0.0172
vn -0.4644 -0.4315 0.7734
vn 0.5297 -0.5870 0.6122
vn 0.4170 0.5552 -0.7196
vn 0.4717 0.4095 -0.7809
vn -0.5296 0.5870 -0.6123
vn -0.1770 -0.8949 -0.4096
vn -0.3350 -0.3366 0.8801
vn 0.8181 0.1549 -0.5539
vn 0.5374 -0.4365 0.7215
vn -0.6204 0.5751 -0.5332
vn -0.9407 0.0314 0.3379
vn -0.8296 0.4611 -0.3148
vn -0.1621 0.5291 -0.8329
vn 0.8881 -0.1942 0.4166
vn 0.9407 -0.0314 -0.3379
vn 0.7826 0.3846 -0.4895
vn 0.3350 0.3366 -0.8801
vn 0.5235 0.4180 -0.7424
vn -0.5374 0.4365 -0.7215
vn 0.0749 0.6514 -0.7550
vn -0.8798 0.4608 -0.1168
vn -0.2755 -0.2561 0.9266
vn 0.0845 -0.1219 0.9889
vn -0.2643 -0.9645 0.0000
vn -0.5647 0.7972 0.2133
vn -0.7134 0.6994 0.0434
vn 0.4387 -0.3139 0.8420
vn 0.8067 -0.5339 0.2533
vn -0.0468 0.4659 0.8836
vn -0.8133 0.5819 0.0000
vn -0.4387 0.3139 0.8420
vn 0.0219 0.1306 -0.9912
vn -0.4387 0.3139 -0.8420
vn -0.0554 0.6918 -0.7199
vn -0.2339 0.4190 -0.8774
vn 0.4182 -0.2047 -0.8850
vn 0.9127 -0.3992 -0.0869
vn 0.9788 -0.1732 -0.1094
vn 0.7872 0.5358 -0.3054
vn 0.3158 -0.9418 0.1153
vn -0.8795 -0.2285 0.4175
vn 0.3669 0.2598 0.8932
vn -0.4497 -0.2069 -0.8689
vn -0.2808 0.1060 -0.9539
vn 0.4230 0.3271 0.8450
vn -0.4485 -0.2052 0.8699
vn 0.9114 0.4114 0.0027
vn 0.4883 0.2203 0.8444
vn -0.8732 -0.2528 0.4167
vn 0.6588 0.4948 0.5668
vn 0.6757 0.3673 -0.6392
vn 0.6023 0.7479 0.2792
vn -0.3181 0.0509 -0.9467
vn -0.1935 -0.0047 0.9811
vn -0.9180 -0.0230 -0.3960
vn -0.9084 -0.4180 -0.0000
vn -0.8038 -0.0431 -0.5933
vn 0.4674 0.2423 -0.8502
vn -0.0239 -0.9776 -0.2090
vn -0.7194 -0.2878 0.6322
vn -0.3143 0.5384 -0.7819
vn -0.7022 -0.5565 0.4442
vn -0.8190 -0.2020 0.5370
vn 0.3988 0.6858 -0.6088
vn 0.9126 0.1196 0.3909
vn -0.9463 -0.2129 0.2434
vn -0.2607 0.6742 -0.6910
vn -0.9310 -0.3490 -0.1066
vn -0.0382 0.6010 -0.7983
vn 0.6693 0.7212 -0.1785
vn -0.0810 -0.3093 0.9475
vn 0.0382 -0.6010 0.7983
vn 0.9258 -0.0059 0.3779
vn 0.7021 0.5565 -0.4442
vn 0.4083 -0.8834 -0.2299
vn -0.1504 0.4766 -0.8662
vn 0.1259 0.4341 -0.8920
vn -0.8804 -0.4476 0.1565
vn -0.2258 -0.3418 0.9122
vn 0.5729 0.3627 0.7350
vn 0.2258 0.3418 -0.9122
vn -0.6571 -0.1095 -0.7458
vn 0.8804 0.4476 -0.1565
vn 0.8371 0.5454 0.0413
vn 0.8507 0.3968 0.3449
vn 0.6571 0.1095 0.7458
vn -0.2025 -0.1742 0.9636
vn -0.2383 -0.0238 0.9709
vn -0.9078 -0.0151 -0.4192
vn 0.6418 0.7527 0.1466
vn 0.1548 -0.9858 -0.0652
vn 0.2591 -0.9657 -0.0182
vn 0.2407 -0.9705 -0.0135
vn -0.9943 -0.0808 -0.0700
vn -0.9959 -0.0755 0.0499
vn -0.1649 0.4121 0.8961
vn 0.9949 0.0909 -0.0427
vn 0.5088 0.1098 -0.8539
vn -0.5336 -0.1089 0.8387
vn -0.4360 -0.0982 0.8946
vn -0.4440 -0.1183 0.8882
vn 0.4380 -0.0420 0.8980
vn 0.5511 -0.0263 0.8340
vn -0.1461 -0.8915 -0.4288
vn -0.5297 0.5870 -0.6122
vn -0.4645 -0.4315 0.7733
vn 0.2621 -0.2324 0.9366
vn 0.9729 -0.1651 -0.1621
vn 0.4625 0.4136 -0.7842
vn 0.4716 0.4096 -0.7809
vn -0.4357 0.5950 -0.6754
vn -0.5296 0.5871 -0.6123
vn 0.3349 0.3366 -0.8801
vn 0.0844 -0.1219 0.9889
vn -0.2655 -0.9641 0.0021
vn -0.1450 -0.9872 -0.0671
vn -0.2643 -0.9644 -0.0048
vn 0.4364 -0.3122 0.8438
vn 0.4388 -0.3134 0.8422
vn 0.8142 -0.5806 -0.0007
vn -0.4399 0.3147 0.8411
vn -0.4386 0.3141 0.8420
vn 0.0480 -0.0344 -0.9983
vn 0.4387 -0.3139 -0.8420
vn 0.2880 -0.9173 0.2748
vn 0.3623 -0.9285 0.0810
vn 0.3180 -0.9458 -0.0660
vn 0.3971 0.2559 0.8814
vn 0.3503 0.2971 0.8883
vn -0.3345 -0.1255 -0.9340
vn -0.4354 -0.1685 -0.8843
vn -0.2200 0.2768 -0.9354
vn -0.5787 0.1111 -0.8079
vn -0.3252 0.0943 -0.9409
vn 0.3255 0.3809 0.8654
vn 0.4192 0.3696 0.8292
vn -0.4178 -0.1953 0.8873
vn -0.4497 -0.2069 0.8689
vn 0.8808 0.4207 0.2173
vn 0.9084 0.4180 0.0000
vn 0.4494 0.2073 0.8690
vn -0.8607 -0.2773 0.4269
vn -0.9240 -0.2574 0.2827
vn 0.6222 0.4066 0.6689
vn 0.6005 0.4169 0.6823
vn 0.5963 0.4172 0.6858
vn 0.6271 0.4038 -0.6661
vn 0.6219 0.3686 -0.6910
vn 0.6540 0.3704 -0.6596
vn 0.5332 0.8307 0.1600
vn -0.2686 -0.0248 0.9629
vn -0.1910 0.0360 0.9809
vn -0.9908 0.1139 -0.0732
vn -0.9641 -0.0794 -0.2535
vn -0.9825 0.1746 -0.0643
vn -0.9312 -0.0793 -0.3557
vn -0.8601 -0.4177 -0.2927
vn -0.9099 -0.4149 0.0026
vn 0.6222 0.3791 0.6850
vn 0.4497 0.2069 -0.8689
vn -0.3511 0.5927 -0.7248
vn -0.7021 -0.5565 0.4442
vn -0.8281 -0.1710 0.5339
vn -0.8828 -0.3989 0.2482
vn -0.7376 -0.2130 0.6407
vn -0.9618 -0.2281 0.1514
vn -0.2715 0.7521 -0.6005
vn -0.3470 0.8479 -0.4009
vn -0.3325 0.6893 -0.6437
vn -0.3102 0.7060 -0.6366
vn -0.2259 0.7156 -0.6610
vn -0.9258 0.0059 -0.3779
vn 0.9394 0.3041 0.1582
vn 0.6673 0.7326 -0.1344
vn 0.6775 0.7223 -0.1391
vn 0.7022 0.5565 -0.4442
usemtl Material
s off
f 2//1 4//1 6//1
f 20//2 19//2 10//2
f 8//3 3//3 9//3
f 15//4 14//4 16//4
f 8//5 12//5 11//5
f 12//6 16//6 11//6
f 21//7 18//7 20//7
f 13//8 1//8 6//8
f 11//9 16//9 13//9
f 19//10 9//10 7//10
f 9//11 18//11 15//11
f 3//12 20//12 7//12
f 14//13 17//13 2//13
f 26//14 27//14 28//14
f 46//15 32//15 45//15
f 43//16 31//16 45//16
f 44//17 31//17 43//17
f 47//18 39//18 48//18
f 41//19 42//19 34//19
f 38//20 37//20 30//20
f 48//21 33//21 44//21
f 47//22 46//22 40//22
f 36//23 29//23 30//23
f 35//24 38//24 30//24
f 34//25 35//25 24//25
f 48//18 38//18 42//18
f 34//22 23//22 32//22
f 45//26 31//26 33//26
f 36//21 44//21 29//21
f 45//27 32//27 28//27
f 29//28 44//28 43//28
f 53//29 54//29 50//29
f 53//30 58//30 54//30
f 64//31 66//31 55//31
f 59//32 57//32 53//32
f 71//33 79//33 74//33
f 61//34 56//34 58//34
f 70//35 61//35 71//35
f 72//36 69//36 63//36
f 68//37 67//37 60//37
f 59//38 52//38 55//38
f 76//39 65//39 75//39
f 55//40 51//40 63//40
f 74//41 65//41 67//41
f 70//42 72//42 63//42
f 65//43 80//43 75//43
f 78//44 79//44 71//44
f 62//45 58//45 57//45
f 79//46 78//46 77//46
f 86//47 83//47 85//47
f 99//48 88//48 97//48
f 99//49 97//49 98//49
f 91//50 92//50 87//50
f 90//51 83//51 82//51
f 87//52 92//52 99//52
f 85//53 95//53 86//53
f 87//54 100//54 94//54
f 102//55 104//55 105//55
f 104//56 81//56 95//56
f 106//57 103//57 97//57
f 98//58 105//58 96//58
f 104//59 90//59 82//59
f 101//60 91//60 102//60
f 93//61 106//61 89//61
f 130//62 119//62 129//62
f 112//63 109//63 111//63
f 116//64 115//64 114//64
f 125//65 128//65 126//65
f 117//66 121//66 122//66
f 140//67 137//67 138//67
f 127//68 128//68 131//68
f 114//69 111//69 124//69
f 123//70 109//70 113//70
f 123//71 110//71 109//71
f 115//72 116//72 120//72
f 128//73 125//73 118//73
f 119//74 118//74 137//74
f 131//75 130//75 129//75
f 139//76 121//76 138//76
f 120//77 127//77 134//77
f 134//78 135//78 136//78
f 117//79 115//79 133//79
f 138//80 121//80 117//80
f 113//81 108//81 122//81
f 146//82 147//82 143//82
f 153//83 151//83 155//83
f 165//84 166//84 163//84
f 156//85 150//85 149//85
f 155//86 156//86 154//86
f 161//87 160//87 159//87
f 168//88 167//88 170//88
f 164//89 165//89 156//89
f 161//90 166//90 164//90
f 150//91 165//91 163//91
f 159//92 143//92 163//92
f 170//93 160//93 162//93
f 149//94 169//94 171//94
f 168//95 149//95 146//95
f 167//96 145//96 144//96
f 167//97 144//97 159//97
f 175//98 176//98 177//98
f 189//99 179//99 187//99
f 189//100 187//100 188//100
f 181//101 182//101 178//101
f 180//102 174//102 173//102
f 196//103 197//103 198//103
f 176//104 185//104 177//104
f 178//105 190//105 184//105
f 193//106 192//106 185//106
f 188//107 193//107 186//107
f 199//108 192//108 193//108
f 180//109 173//109 192//109
f 196//110 181//110 197//110
f 183//111 196//111 195//111
f 183//112 195//112 194//112
f 194//113 198//113 187//113
f 6//114 1//114 2//114
f 2//115 3//115 4//115
f 4//116 5//116 6//116
f 4//117 3//117 8//117
f 3//118 7//118 9//118
f 15//4 21//4 22//4
f 22//4 14//4 15//4
f 14//4 13//4 16//4
f 5//5 4//5 11//5
f 4//5 8//5 11//5
f 12//6 15//6 16//6
f 18//119 19//119 20//119
f 20//7 17//7 21//7
f 17//7 22//7 21//7
f 13//120 14//120 1//120
f 6//121 5//121 13//121
f 5//9 11//9 13//9
f 7//10 10//10 19//10
f 19//10 18//10 9//10
f 21//11 15//11 18//11
f 15//11 12//11 8//11
f 9//11 15//11 8//11
f 3//122 2//122 20//122
f 2//123 17//123 20//123
f 20//124 10//124 7//124
f 2//125 1//125 14//125
f 14//126 22//126 17//126
f 28//14 23//14 26//14
f 23//127 24//127 26//127
f 24//127 25//127 26//127
f 44//128 33//128 31//128
f 47//18 40//18 39//18
f 48//21 39//21 33//21
f 26//23 25//23 29//23
f 25//23 30//23 29//23
f 30//23 37//23 36//23
f 25//129 24//129 30//129
f 24//129 35//129 30//129
f 24//25 23//25 34//25
f 34//25 42//25 35//25
f 35//130 42//130 38//130
f 42//18 41//18 48//18
f 41//18 47//18 48//18
f 48//18 36//18 37//18
f 37//18 38//18 48//18
f 23//131 28//131 32//131
f 32//22 46//22 34//22
f 46//22 47//22 41//22
f 34//22 46//22 41//22
f 39//15 40//15 33//15
f 40//15 46//15 33//15
f 46//15 45//15 33//15
f 36//21 48//21 44//21
f 28//132 27//132 43//132
f 43//133 45//133 28//133
f 27//134 26//134 43//134
f 26//135 29//135 43//135
f 54//29 49//29 50//29
f 50//29 51//29 53//29
f 51//29 52//29 53//29
f 53//30 57//30 58//30
f 53//32 52//32 59//32
f 59//32 60//32 57//32
f 79//33 80//33 74//33
f 74//33 73//33 71//33
f 73//33 72//33 71//33
f 72//33 70//33 71//33
f 49//34 54//34 56//34
f 54//34 58//34 56//34
f 58//34 62//34 61//34
f 70//35 56//35 61//35
f 72//36 73//36 69//36
f 76//37 77//37 67//37
f 77//37 60//37 67//37
f 60//37 59//37 68//37
f 52//38 51//38 55//38
f 55//38 66//38 59//38
f 66//38 68//38 59//38
f 76//39 67//39 65//39
f 51//40 50//40 63//40
f 63//40 69//40 55//40
f 69//136 64//136 55//136
f 67//41 68//41 74//41
f 68//41 66//41 69//41
f 66//41 64//41 69//41
f 69//41 73//41 68//41
f 73//41 74//41 68//41
f 50//42 49//42 63//42
f 49//42 56//42 63//42
f 56//42 70//42 63//42
f 65//43 74//43 80//43
f 61//44 62//44 71//44
f 62//44 78//44 71//44
f 57//45 60//45 62//45
f 60//45 77//45 62//45
f 77//45 78//45 62//45
f 77//137 76//137 75//137
f 75//46 80//46 77//46
f 80//46 79//46 77//46
f 86//138 81//138 83//138
f 81//139 82//139 83//139
f 83//140 84//140 85//140
f 98//49 96//49 100//49
f 96//49 95//49 100//49
f 95//49 94//49 100//49
f 100//49 99//49 98//49
f 84//141 83//141 87//141
f 83//142 91//142 87//142
f 90//143 91//143 83//143
f 89//52 88//52 93//52
f 88//52 99//52 92//52
f 93//52 88//52 92//52
f 99//52 100//52 87//52
f 85//53 94//53 95//53
f 85//144 84//144 94//144
f 84//145 87//145 94//145
f 105//55 103//55 102//55
f 103//55 106//55 102//55
f 106//55 101//55 102//55
f 81//56 86//56 95//56
f 95//56 96//56 105//56
f 105//56 104//56 95//56
f 103//57 98//57 97//57
f 97//57 88//57 106//57
f 88//57 89//57 106//57
f 98//58 103//58 105//58
f 82//146 81//146 104//146
f 104//147 102//147 90//147
f 101//60 93//60 91//60
f 93//60 92//60 91//60
f 91//60 90//60 102//60
f 93//61 101//61 106//61
f 112//148 107//148 108//148
f 108//149 109//149 112//149
f 109//150 110//150 111//150
f 128//151 127//151 126//151
f 126//152 124//152 125//152
f 124//152 123//152 125//152
f 107//153 112//153 122//153
f 112//154 117//154 122//154
f 139//155 138//155 137//155
f 138//156 142//156 140//156
f 142//157 141//157 140//157
f 131//158 136//158 127//158
f 136//159 135//159 127//159
f 111//160 110//160 124//160
f 124//161 126//161 114//161
f 126//161 120//161 116//161
f 116//161 114//161 126//161
f 109//162 108//162 113//162
f 113//163 118//163 125//163
f 125//163 123//163 113//163
f 123//164 124//164 110//164
f 120//165 134//165 115//165
f 134//166 132//166 115//166
f 118//167 119//167 128//167
f 119//168 130//168 128//168
f 130//169 131//169 128//169
f 113//170 137//170 118//170
f 137//171 140//171 129//171
f 119//172 137//172 129//172
f 129//173 140//173 131//173
f 140//173 141//173 131//173
f 141//173 136//173 131//173
f 139//76 122//76 121//76
f 126//174 127//174 120//174
f 127//175 135//175 134//175
f 136//176 141//176 134//176
f 141//177 142//177 132//177
f 142//178 133//178 132//178
f 132//179 134//179 141//179
f 112//180 111//180 117//180
f 111//181 114//181 117//181
f 114//79 115//79 117//79
f 115//79 132//79 133//79
f 117//80 133//80 138//80
f 133//80 142//80 138//80
f 108//182 107//182 122//182
f 122//183 139//183 137//183
f 137//183 113//183 122//183
f 148//82 143//82 147//82
f 143//82 144//82 146//82
f 144//82 145//82 146//82
f 165//184 164//184 166//184
f 147//85 146//85 150//85
f 146//185 149//185 150//185
f 149//185 154//185 156//185
f 157//186 158//186 152//186
f 158//86 153//86 154//86
f 152//86 158//86 154//86
f 153//86 155//86 154//86
f 161//87 162//87 160//87
f 170//88 171//88 169//88
f 169//88 168//88 170//88
f 150//187 156//187 165//187
f 156//188 155//188 151//188
f 164//189 156//189 151//189
f 164//190 151//190 162//190
f 151//191 153//191 162//191
f 153//192 158//192 162//192
f 158//193 157//193 162//193
f 162//194 161//194 164//194
f 148//195 147//195 163//195
f 147//195 150//195 163//195
f 143//92 148//92 163//92
f 163//92 166//92 159//92
f 166//92 161//92 159//92
f 157//196 152//196 162//196
f 152//197 171//197 162//197
f 171//198 170//198 162//198
f 171//94 152//94 154//94
f 154//94 149//94 171//94
f 146//95 145//95 168//95
f 168//95 169//95 149//95
f 167//96 168//96 145//96
f 144//97 143//97 159//97
f 159//199 160//199 167//199
f 160//199 170//199 167//199
f 177//98 172//98 174//98
f 172//98 173//98 174//98
f 174//98 175//98 177//98
f 188//100 186//100 190//100
f 186//100 185//100 190//100
f 185//100 184//100 190//100
f 190//100 189//100 188//100
f 175//101 174//101 178//101
f 174//101 181//101 178//101
f 180//102 181//102 174//102
f 199//103 198//103 197//103
f 198//103 194//103 196//103
f 194//103 195//103 196//103
f 176//104 184//104 185//104
f 176//105 175//105 184//105
f 175//105 178//105 184//105
f 172//106 177//106 192//106
f 177//106 185//106 192//106
f 185//106 186//106 193//106
f 188//107 191//107 193//107
f 193//108 191//108 199//108
f 191//108 198//108 199//108
f 173//109 172//109 192//109
f 192//109 199//109 180//109
f 199//109 197//109 180//109
f 196//110 183//110 182//110
f 182//110 181//110 196//110
f 181//110 180//110 197//110
f 194//112 179//112 183//112
f 179//112 189//112 182//112
f 183//112 179//112 182//112
f 189//112 190//112 182//112
f 190//112 178//112 182//112
f 191//113 188//113 198//113
f 188//113 187//113 198//113
f 187//113 179//113 194//113
