# Blender v2.93.4 OBJ File: 'blockisland.blend'
# www.blender.org
mtllib bush.mtl
o Cube.009_Cube.008
v 27.358343 16.984606 -5.882509
v 27.358343 18.974108 -5.882509
v 27.358343 17.110374 -10.357366
v 27.358343 18.974108 -10.357366
v 32.024223 17.110374 -5.882509
v 32.024223 18.974108 -5.882509
v 32.024223 17.110374 -10.357366
v 32.024223 18.974108 -10.357366
v 30.757038 16.419485 -6.831481
v 30.757038 19.851616 -6.831481
v 30.757038 16.419485 -10.263611
v 30.757038 19.851616 -10.263611
v 34.189171 16.419485 -6.831481
v 34.189171 19.851616 -6.831481
v 34.189171 16.419485 -10.263611
v 34.189171 19.851616 -10.263611
v 28.575859 16.740561 -7.823603
v 28.575859 20.172691 -7.823603
v 28.575859 16.740561 -11.255733
v 28.575859 20.172691 -11.255733
v 32.007988 16.740561 -7.823603
v 32.007988 20.172691 -7.823603
v 32.007988 16.740561 -11.255733
v 32.007988 20.172691 -11.255733
v 24.758804 15.768215 -9.179225
v 24.758804 19.200346 -9.179225
v 24.758804 15.768215 -12.611355
v 24.758804 19.200346 -12.611355
v 30.269184 15.768215 -9.179225
v 30.269184 19.200346 -9.179225
v 30.269184 15.768215 -12.611355
v 30.269184 19.200346 -12.611355
v 28.907789 15.593207 -8.395096
v 28.907789 17.516497 -8.395096
v 28.907789 15.467440 -11.827227
v 28.907789 17.516497 -11.827227
v 32.339920 15.467440 -8.395096
v 32.339920 17.516497 -8.395096
v 32.339920 15.467440 -11.827227
v 32.339920 17.516497 -11.827227
v 15.156377 16.984606 5.852223
v 15.156377 18.974108 5.852223
v 16.454527 17.110374 10.134648
v 16.454527 18.974108 10.134648
v 10.691144 17.110374 7.205790
v 10.691144 18.974108 7.205790
v 11.989293 17.110374 11.488215
v 11.989293 18.974108 11.488215
v 12.179132 16.419485 7.746344
v 12.179132 19.851616 7.746344
v 13.174788 16.419485 11.030883
v 13.174788 19.851616 11.030883
v 8.894595 16.419485 8.742001
v 8.894595 19.851616 8.742001
v 9.890252 16.419485 12.026538
v 9.890252 19.851616 12.026538
v 14.554326 16.740561 8.063044
v 14.554326 20.172691 8.063044
v 15.549983 16.740561 11.347582
v 15.549983 20.172691 11.347582
v 11.269789 16.740561 9.058702
v 11.269789 20.172691 9.058702
v 12.265446 16.740561 12.343240
v 12.265446 20.172691 12.343240
v 18.600500 15.768215 8.253047
v 18.600500 19.200346 8.253047
v 19.596159 15.768215 11.537584
v 19.596159 19.200346 11.537584
v 13.327085 15.768215 9.851603
v 13.327085 19.200346 9.851603
v 14.322741 15.768215 13.136141
v 14.322741 19.200346 13.136141
v 14.402461 15.593207 8.706253
v 14.402461 17.516497 8.706253
v 15.398118 15.467440 11.990790
v 15.398118 17.516497 11.990790
v 11.117924 15.467440 9.701910
v 11.117924 17.516497 9.701910
v 12.113581 15.467440 12.986447
v 12.113581 17.516497 12.986447
vt 0.625000 0.000000
vt 0.375000 0.250000
vt 0.375000 0.000000
vt 0.625000 0.250000
vt 0.375000 0.500000
vt 0.625000 0.500000
vt 0.375000 0.750000
vt 0.625000 1.000000
vt 0.375000 1.000000
vt 0.125000 0.500000
vt 0.125000 0.750000
vt 0.875000 0.500000
vt 0.625000 0.750000
vt 0.625000 0.000000
vt 0.375000 0.250000
vt 0.375000 0.000000
vt 0.625000 0.250000
vt 0.375000 0.500000
vt 0.625000 0.500000
vt 0.375000 0.750000
vt 0.625000 0.750000
vt 0.375000 1.000000
vt 0.125000 0.750000
vt 0.125000 0.500000
vt 0.875000 0.500000
vt 0.625000 0.000000
vt 0.375000 0.250000
vt 0.375000 0.000000
vt 0.625000 0.250000
vt 0.375000 0.500000
vt 0.625000 0.500000
vt 0.375000 0.750000
vt 0.625000 0.750000
vt 0.375000 1.000000
vt 0.125000 0.750000
vt 0.125000 0.500000
vt 0.875000 0.500000
vt 0.625000 0.000000
vt 0.375000 0.250000
vt 0.375000 0.000000
vt 0.625000 0.250000
vt 0.375000 0.500000
vt 0.625000 0.500000
vt 0.375000 0.750000
vt 0.625000 0.750000
vt 0.375000 1.000000
vt 0.125000 0.750000
vt 0.125000 0.500000
vt 0.875000 0.500000
vt 0.375000 0.000000
vt 0.625000 0.250000
vt 0.375000 0.250000
vt 0.375000 0.500000
vt 0.625000 0.500000
vt 0.375000 0.750000
vt 0.625000 0.750000
vt 0.375000 1.000000
vt 0.125000 0.500000
vt 0.125000 0.750000
vt 0.875000 0.500000
vt 0.625000 0.000000
vt 0.375000 0.250000
vt 0.375000 0.000000
vt 0.625000 0.250000
vt 0.375000 0.500000
vt 0.625000 0.500000
vt 0.375000 0.750000
vt 0.625000 1.000000
vt 0.375000 1.000000
vt 0.125000 0.500000
vt 0.125000 0.750000
vt 0.875000 0.500000
vt 0.625000 0.750000
vt 0.625000 0.000000
vt 0.375000 0.250000
vt 0.375000 0.000000
vt 0.625000 0.250000
vt 0.375000 0.500000
vt 0.625000 0.500000
vt 0.375000 0.750000
vt 0.625000 0.750000
vt 0.375000 1.000000
vt 0.125000 0.500000
vt 0.125000 0.750000
vt 0.875000 0.500000
vt 0.625000 0.000000
vt 0.375000 0.250000
vt 0.375000 0.000000
vt 0.625000 0.250000
vt 0.375000 0.500000
vt 0.625000 0.500000
vt 0.375000 0.750000
vt 0.625000 0.750000
vt 0.375000 1.000000
vt 0.125000 0.500000
vt 0.125000 0.750000
vt 0.875000 0.500000
vt 0.625000 0.000000
vt 0.375000 0.250000
vt 0.375000 0.000000
vt 0.625000 0.250000
vt 0.375000 0.500000
vt 0.625000 0.500000
vt 0.375000 0.750000
vt 0.625000 0.750000
vt 0.375000 1.000000
vt 0.125000 0.500000
vt 0.125000 0.750000
vt 0.875000 0.500000
vt 0.375000 0.000000
vt 0.625000 0.250000
vt 0.375000 0.250000
vt 0.375000 0.500000
vt 0.625000 0.500000
vt 0.375000 0.750000
vt 0.625000 0.750000
vt 0.375000 1.000000
vt 0.125000 0.500000
vt 0.125000 0.750000
vt 0.875000 0.500000
vt 0.875000 0.750000
vt 0.625000 1.000000
vt 0.875000 0.750000
vt 0.625000 1.000000
vt 0.875000 0.750000
vt 0.625000 1.000000
vt 0.875000 0.750000
vt 0.625000 0.000000
vt 0.625000 1.000000
vt 0.875000 0.750000
vt 0.875000 0.750000
vt 0.625000 1.000000
vt 0.875000 0.750000
vt 0.625000 1.000000
vt 0.875000 0.750000
vt 0.625000 1.000000
vt 0.875000 0.750000
vt 0.625000 0.000000
vt 0.625000 1.000000
vt 0.875000 0.750000
vn -1.0000 0.0000 0.0000
vn 0.0000 0.0000 -1.0000
vn 1.0000 0.0000 0.0000
vn 0.0000 0.0000 1.0000
vn 0.0269 -0.9992 -0.0281
vn 0.0000 1.0000 0.0000
vn 0.0000 -1.0000 0.0000
vn -0.0366 -0.9987 0.0366
vn 0.9570 0.0000 -0.2901
vn 0.2901 0.0000 0.9570
vn -0.9570 0.0000 0.2901
vn -0.2901 0.0000 -0.9570
vn -0.0176 -0.9992 0.0347
vn 0.0244 -0.9987 -0.0456
usemtl Material.006
s off
f 2/1/1 3/2/1 1/3/1
f 4/4/2 7/5/2 3/2/2
f 8/6/3 5/7/3 7/5/3
f 5/7/4 2/8/4 1/9/4
f 3/10/5 5/7/5 1/11/5
f 4/12/6 6/13/6 8/6/6
f 10/14/1 11/15/1 9/16/1
f 12/17/2 15/18/2 11/15/2
f 16/19/3 13/20/3 15/18/3
f 14/21/4 9/22/4 13/20/4
f 15/18/7 9/23/7 11/24/7
f 12/25/6 14/21/6 16/19/6
f 18/26/1 19/27/1 17/28/1
f 20/29/2 23/30/2 19/27/2
f 24/31/3 21/32/3 23/30/3
f 22/33/4 17/34/4 21/32/4
f 23/30/7 17/35/7 19/36/7
f 20/37/6 22/33/6 24/31/6
f 26/38/1 27/39/1 25/40/1
f 28/41/2 31/42/2 27/39/2
f 32/43/3 29/44/3 31/42/3
f 30/45/4 25/46/4 29/44/4
f 31/42/7 25/47/7 27/48/7
f 28/49/6 30/45/6 32/43/6
f 33/50/1 36/51/1 35/52/1
f 36/51/2 39/53/2 35/52/2
f 40/54/3 37/55/3 39/53/3
f 38/56/4 33/57/4 37/55/4
f 35/58/8 37/55/8 33/59/8
f 36/60/6 38/56/6 40/54/6
f 42/61/9 43/62/9 41/63/9
f 44/64/10 47/65/10 43/62/10
f 48/66/11 45/67/11 47/65/11
f 45/67/12 42/68/12 41/69/12
f 43/70/13 45/67/13 41/71/13
f 44/72/6 46/73/6 48/66/6
f 50/74/9 51/75/9 49/76/9
f 52/77/10 55/78/10 51/75/10
f 56/79/11 53/80/11 55/78/11
f 54/81/12 49/82/12 53/80/12
f 51/83/7 53/80/7 49/84/7
f 52/85/6 54/81/6 56/79/6
f 58/86/9 59/87/9 57/88/9
f 60/89/10 63/90/10 59/87/10
f 64/91/11 61/92/11 63/90/11
f 62/93/12 57/94/12 61/92/12
f 59/95/7 61/92/7 57/96/7
f 60/97/6 62/93/6 64/91/6
f 66/98/9 67/99/9 65/100/9
f 68/101/10 71/102/10 67/99/10
f 72/103/11 69/104/11 71/102/11
f 70/105/12 65/106/12 69/104/12
f 67/107/7 69/104/7 65/108/7
f 68/109/6 70/105/6 72/103/6
f 73/110/9 76/111/9 75/112/9
f 76/111/10 79/113/10 75/112/10
f 80/114/11 77/115/11 79/113/11
f 78/116/12 73/117/12 77/115/12
f 75/118/14 77/115/14 73/119/14
f 76/120/6 78/116/6 80/114/6
f 2/1/1 4/4/1 3/2/1
f 4/4/2 8/6/2 7/5/2
f 8/6/3 6/13/3 5/7/3
f 5/7/4 6/13/4 2/8/4
f 3/10/7 7/5/7 5/7/7
f 4/12/6 2/121/6 6/13/6
f 10/14/1 12/17/1 11/15/1
f 12/17/2 16/19/2 15/18/2
f 16/19/3 14/21/3 13/20/3
f 14/21/4 10/122/4 9/22/4
f 15/18/7 13/20/7 9/23/7
f 12/25/6 10/123/6 14/21/6
f 18/26/1 20/29/1 19/27/1
f 20/29/2 24/31/2 23/30/2
f 24/31/3 22/33/3 21/32/3
f 22/33/4 18/124/4 17/34/4
f 23/30/7 21/32/7 17/35/7
f 20/37/6 18/125/6 22/33/6
f 26/38/1 28/41/1 27/39/1
f 28/41/2 32/43/2 31/42/2
f 32/43/3 30/45/3 29/44/3
f 30/45/4 26/126/4 25/46/4
f 31/42/7 29/44/7 25/47/7
f 28/49/6 26/127/6 30/45/6
f 33/50/1 34/128/1 36/51/1
f 36/51/2 40/54/2 39/53/2
f 40/54/3 38/56/3 37/55/3
f 38/56/4 34/129/4 33/57/4
f 35/58/7 39/53/7 37/55/7
f 36/60/6 34/130/6 38/56/6
f 42/61/9 44/64/9 43/62/9
f 44/64/10 48/66/10 47/65/10
f 48/66/11 46/73/11 45/67/11
f 45/67/12 46/73/12 42/68/12
f 43/70/7 47/65/7 45/67/7
f 44/72/6 42/131/6 46/73/6
f 50/74/9 52/77/9 51/75/9
f 52/77/10 56/79/10 55/78/10
f 56/79/11 54/81/11 53/80/11
f 54/81/12 50/132/12 49/82/12
f 51/83/7 55/78/7 53/80/7
f 52/85/6 50/133/6 54/81/6
f 58/86/9 60/89/9 59/87/9
f 60/89/10 64/91/10 63/90/10
f 64/91/11 62/93/11 61/92/11
f 62/93/12 58/134/12 57/94/12
f 59/95/7 63/90/7 61/92/7
f 60/97/6 58/135/6 62/93/6
f 66/98/9 68/101/9 67/99/9
f 68/101/10 72/103/10 71/102/10
f 72/103/11 70/105/11 69/104/11
f 70/105/12 66/136/12 65/106/12
f 67/107/7 71/102/7 69/104/7
f 68/109/6 66/137/6 70/105/6
f 73/110/9 74/138/9 76/111/9
f 76/111/10 80/114/10 79/113/10
f 80/114/11 78/116/11 77/115/11
f 78/116/12 74/139/12 73/117/12
f 75/118/7 79/113/7 77/115/7
f 76/120/6 74/140/6 78/116/6
