# Blender v2.93.4 OBJ File: ''
# www.blender.org
mtllib ground.mtl
o Cube
v 2.995656 0.214977 -2.995656
v 2.995656 -0.214977 -2.995656
v 2.995656 0.214977 2.995656
v 2.995656 -0.214977 2.995656
v -2.995656 0.214977 -2.995656
v -2.995656 -0.214977 -2.995656
v -2.995656 0.214977 2.995656
v -2.995656 -0.214977 2.995656
v -0.076032 -0.214977 -2.995656
v -2.073136 -0.214977 -2.995656
v -0.076032 0.214977 2.995656
v -2.073136 0.214977 2.995656
v -2.073136 -0.214977 2.995656
v -0.076032 -0.214977 2.995656
v -2.073136 0.214977 -2.995656
v -0.076032 0.214977 -2.995656
v -2.995656 -0.214977 -0.998552
v -2.995656 -0.214977 0.998552
v 2.995656 0.214977 -0.998552
v 2.995656 0.214977 0.998552
v -2.995656 0.214977 0.998552
v -2.995656 0.214977 -0.998552
v 2.995656 -0.214977 0.998552
v 2.995656 -0.214977 -0.998552
v -2.073136 -0.214977 -0.998552
v -2.073136 -0.214977 0.998552
v -0.076032 -0.214977 -0.998552
v -0.076032 -0.214977 0.998552
v -0.076032 0.214977 -0.998552
v -0.076032 0.214977 1.640353
v -2.073136 0.214977 -1.561684
v -2.073136 0.214977 1.640353
v -0.418466 -0.007871 -0.656118
v -0.418466 -0.007871 1.297919
v -1.730702 -0.007871 -1.219250
v -1.730702 -0.007871 1.297919
v -2.995656 -0.214977 0.000000
v 2.995656 0.214977 0.000000
v -2.995656 0.214977 -0.000000
v 2.995656 -0.214977 -0.000000
v -2.073136 -0.214977 0.000000
v -0.076032 -0.214977 0.000000
v 0.630570 0.214977 0.320900
v -2.362346 0.214977 0.320900
v 0.288136 -0.007871 0.320900
v -2.019912 -0.007871 0.320900
v 2.995656 0.214977 -6.199498
v 2.995656 -0.214977 -6.199498
v -2.995656 0.214977 -6.199498
v -2.995656 -0.214977 -6.199498
v -0.076032 -0.214977 -6.199498
v -2.073136 -0.214977 -6.199498
v -2.073136 0.214977 -6.199498
v -0.076032 0.214977 -6.199498
vt 0.836506 0.666667
vt 0.875000 0.750000
vt 0.836506 0.750000
vt 0.625000 0.961506
vt 0.375000 1.000000
vt 0.375000 0.961506
vt 0.625000 0.166667
vt 0.375000 0.250000
vt 0.375000 0.166667
vt 0.375000 0.666667
vt 0.246827 0.750000
vt 0.246827 0.666667
vt 0.625000 0.666667
vt 0.375000 0.750000
vt 0.836506 0.500000
vt 0.875000 0.500000
vt 0.875000 0.500000
vt 0.375000 0.500000
vt 0.625000 0.500000
vt 0.625000 0.500000
vt 0.163494 0.500000
vt 0.246827 0.500000
vt 0.246827 0.500000
vt 0.163494 0.666667
vt 0.125000 0.750000
vt 0.125000 0.666667
vt 0.163494 0.750000
vt 0.625000 0.750000
vt 0.375000 0.878173
vt 0.625000 0.878173
vt 0.753173 0.666667
vt 0.753173 0.750000
vt 0.753173 0.500000
vt 0.836506 0.583333
vt 0.753173 0.583333
vt 0.836506 0.666667
vt 0.625000 0.583333
vt 0.753173 0.625000
vt 0.625000 0.625000
vt 0.163494 0.583333
vt 0.246827 0.625000
vt 0.163494 0.625000
vt 0.125000 0.583333
vt 0.125000 0.500000
vt 0.125000 0.625000
vt 0.375000 0.583333
vt 0.375000 0.625000
vt 0.246827 0.583333
vt 0.625000 0.000000
vt 0.375000 0.083333
vt 0.375000 0.000000
vt 0.625000 0.125000
vt 0.375000 0.125000
vt 0.836506 0.625000
vt 0.875000 0.666667
vt 0.836506 0.625000
vt 0.753173 0.666667
vt 0.753173 0.625000
vt 0.836506 0.583333
vt 0.753173 0.583333
vt 0.875000 0.583333
vt 0.625000 0.083333
vt 0.375000 0.371827
vt 0.375000 0.500000
vt 0.625000 0.250000
vt 0.375000 0.288494
vt 0.375000 0.250000
vt 0.625000 0.288494
vt 0.625000 0.250000
vt 0.163494 0.500000
vt 0.753173 0.500000
vt 0.836506 0.500000
vt 0.625000 1.000000
vt 0.875000 0.625000
vt 0.625000 0.371827
vt 0.125000 0.500000
vn 0.0000 1.0000 0.0000
vn 0.0000 0.0000 1.0000
vn -1.0000 0.0000 0.0000
vn 0.0000 -1.0000 0.0000
vn 1.0000 0.0000 0.0000
vn 0.0000 0.8381 -0.5454
vn 0.5385 0.8274 -0.1594
vn -0.5236 0.8045 0.2804
vn -0.1751 0.8960 0.4080
vn -0.3423 0.9064 -0.2476
vn 0.4899 0.8685 0.0753
vn 0.0000 0.0000 -1.0000
vn 0.4684 0.8775 -0.1027
vn -0.3423 0.9064 0.2476
vn -0.1861 0.7280 0.6598
vn -0.5236 0.8045 -0.2804
vn 0.5426 0.8338 0.1019
usemtl Material
s off
f 32/1/1 7/2/1 12/3/1
f 12/4/2 8/5/2 13/6/2
f 22/7/3 6/8/3 17/9/3
f 23/10/4 14/11/4 28/12/4
f 20/13/5 4/14/5 23/10/5
f 15/15/1 49/16/1 5/17/1
f 2/18/5 47/19/5 1/20/5
f 10/21/4 51/22/4 9/23/4
f 26/24/4 8/25/4 18/26/4
f 28/12/4 13/27/4 26/24/4
f 3/28/2 14/29/2 4/14/2
f 11/30/2 13/6/2 14/29/2
f 30/31/1 3/28/1 20/13/1
f 32/1/1 11/32/1 30/31/1
f 16/33/1 31/34/1 29/35/1
f 30/31/6 36/36/6 32/1/6
f 16/33/1 19/37/1 1/20/1
f 43/38/1 20/13/1 38/39/1
f 9/23/4 25/40/4 10/21/4
f 42/41/4 26/24/4 41/42/4
f 10/21/4 17/43/4 6/44/4
f 41/42/4 18/26/4 37/45/4
f 1/20/5 24/46/5 2/18/5
f 38/39/5 23/10/5 40/47/5
f 2/18/4 27/48/4 9/23/4
f 40/47/4 28/12/4 42/41/4
f 7/49/3 18/50/3 8/51/3
f 39/52/3 17/9/3 37/53/3
f 5/17/1 31/34/1 15/15/1
f 44/54/1 21/55/1 32/1/1
f 46/56/1 34/57/1 45/58/1
f 44/54/7 36/36/7 46/56/7
f 29/35/8 45/58/8 43/38/8
f 29/35/9 35/59/9 33/60/9
f 30/31/10 45/58/10 34/57/10
f 44/54/11 35/59/11 31/34/11
f 33/60/1 46/56/1 45/58/1
f 22/61/1 44/54/1 31/34/1
f 21/62/3 37/53/3 18/50/3
f 24/46/4 42/41/4 27/48/4
f 19/37/5 40/47/5 24/46/5
f 25/40/4 37/45/4 17/43/4
f 27/48/4 41/42/4 25/40/4
f 19/37/1 43/38/1 38/39/1
f 51/63/12 47/19/12 48/64/12
f 49/65/12 52/66/12 50/67/12
f 53/68/12 51/63/12 52/66/12
f 5/69/3 50/67/3 6/8/3
f 9/23/4 48/64/4 2/18/4
f 6/44/4 52/70/4 10/21/4
f 1/20/1 54/71/1 16/33/1
f 16/33/1 53/72/1 15/15/1
f 32/1/1 21/55/1 7/2/1
f 12/4/2 7/73/2 8/5/2
f 22/7/3 5/69/3 6/8/3
f 23/10/4 4/14/4 14/11/4
f 20/13/5 3/28/5 4/14/5
f 15/15/1 53/72/1 49/16/1
f 2/18/5 48/64/5 47/19/5
f 10/21/4 52/70/4 51/22/4
f 26/24/4 13/27/4 8/25/4
f 28/12/4 14/11/4 13/27/4
f 3/28/2 11/30/2 14/29/2
f 11/30/2 12/4/2 13/6/2
f 30/31/1 11/32/1 3/28/1
f 32/1/1 12/3/1 11/32/1
f 16/33/1 15/15/1 31/34/1
f 30/31/6 34/57/6 36/36/6
f 16/33/1 29/35/1 19/37/1
f 43/38/1 30/31/1 20/13/1
f 9/23/4 27/48/4 25/40/4
f 42/41/4 28/12/4 26/24/4
f 10/21/4 25/40/4 17/43/4
f 41/42/4 26/24/4 18/26/4
f 1/20/5 19/37/5 24/46/5
f 38/39/5 20/13/5 23/10/5
f 2/18/4 24/46/4 27/48/4
f 40/47/4 23/10/4 28/12/4
f 7/49/3 21/62/3 18/50/3
f 39/52/3 22/7/3 17/9/3
f 5/17/1 22/61/1 31/34/1
f 44/54/1 39/74/1 21/55/1
f 46/56/1 36/36/1 34/57/1
f 44/54/13 32/1/13 36/36/13
f 29/35/14 33/60/14 45/58/14
f 29/35/15 31/34/15 35/59/15
f 30/31/16 43/38/16 45/58/16
f 44/54/17 46/56/17 35/59/17
f 33/60/1 35/59/1 46/56/1
f 22/61/1 39/74/1 44/54/1
f 21/62/3 39/52/3 37/53/3
f 24/46/4 40/47/4 42/41/4
f 19/37/5 38/39/5 40/47/5
f 25/40/4 41/42/4 37/45/4
f 27/48/4 42/41/4 41/42/4
f 19/37/1 29/35/1 43/38/1
f 51/63/12 54/75/12 47/19/12
f 49/65/12 53/68/12 52/66/12
f 53/68/12 54/75/12 51/63/12
f 5/69/3 49/65/3 50/67/3
f 9/23/4 51/22/4 48/64/4
f 6/44/4 50/76/4 52/70/4
f 1/20/1 47/19/1 54/71/1
f 16/33/1 54/71/1 53/72/1
