# Blender v2.93.4 OBJ File: ''
# www.blender.org
mtllib treetrunk2.mtl
o Cube.003
v 1.165347 -0.016660 -1.589069
v 1.130327 0.658383 -1.880574
v 0.670750 -0.016660 -1.852907
v 0.932362 0.658383 -1.986177
v 1.429186 -0.016660 -2.083665
v 1.235930 0.658383 -2.078539
v 0.934589 -0.016660 -2.347504
v 1.037965 0.658383 -2.184142
v 1.089781 2.146136 -1.837430
v 0.919112 2.146136 -1.928473
v 1.010154 2.146136 -2.099143
v 1.180824 2.146136 -2.008100
v 1.069870 2.901782 -1.890460
v 0.974244 2.901782 -1.941471
v 0.923234 2.901782 -1.845845
v 1.018860 2.901782 -1.794834
v 0.938370 1.402259 -1.981007
v 1.122687 1.402260 -1.882684
v 1.221010 1.402259 -2.067001
v 1.036693 1.402260 -2.165324
v 1.950542 -0.016660 0.280284
v 2.191258 0.658383 0.112185
v 1.950542 -0.016660 -0.280284
v 2.191258 0.658383 -0.112185
v 2.511110 -0.016660 0.280284
v 2.415629 0.658383 0.112185
v 2.511110 -0.016660 -0.280284
v 2.415629 0.658383 -0.112185
v 2.134108 2.146136 0.096717
v 2.134108 2.146136 -0.096717
v 2.327543 2.146136 -0.096717
v 2.327543 2.146136 0.096717
v 2.171526 2.901782 0.054191
v 2.171526 2.901782 -0.054191
v 2.063145 2.901782 -0.054191
v 2.063145 2.901782 0.054191
v 2.189525 1.402259 -0.104451
v 2.189525 1.402260 0.104451
v 2.398427 1.402259 0.104451
v 2.398427 1.402260 -0.104451
vt 0.625000 0.000000
vt 0.375000 0.250000
vt 0.375000 0.000000
vt 0.625000 0.250000
vt 0.375000 0.500000
vt 0.625000 0.500000
vt 0.375000 0.750000
vt 0.625000 1.000000
vt 0.375000 1.000000
vt 0.125000 0.750000
vt 0.125000 0.500000
vt 0.625000 0.500000
vt 0.625000 0.750000
vt 0.625000 0.750000
vt 0.625000 0.000000
vt 0.625000 0.250000
vt 0.625000 0.250000
vt 0.625000 1.000000
vt 0.625000 1.000000
vt 0.625000 0.500000
vt 0.625000 0.000000
vt 0.625000 0.250000
vt 0.625000 0.750000
vt 0.625000 1.000000
vt 0.625000 0.750000
vt 0.625000 0.500000
vt 0.625000 0.000000
vt 0.375000 0.250000
vt 0.375000 0.000000
vt 0.625000 0.250000
vt 0.375000 0.500000
vt 0.625000 0.750000
vt 0.375000 0.750000
vt 0.625000 1.000000
vt 0.375000 1.000000
vt 0.125000 0.750000
vt 0.125000 0.500000
vt 0.625000 0.500000
vt 0.625000 0.750000
vt 0.625000 0.750000
vt 0.625000 0.000000
vt 0.625000 0.250000
vt 0.625000 0.250000
vt 0.625000 1.000000
vt 0.625000 1.000000
vt 0.625000 0.500000
vt 0.625000 0.000000
vt 0.625000 0.250000
vt 0.625000 0.750000
vt 0.625000 1.000000
vt 0.625000 0.500000
vt 0.625000 0.500000
vt 0.625000 0.000000
vt 0.625000 0.000000
vn -0.4433 0.3359 0.8311
vn -0.8562 0.2416 -0.4567
vn 0.4660 0.1401 -0.8736
vn 0.8562 0.2416 0.4567
vn 0.0000 -1.0000 0.0000
vn 0.4685 0.0949 -0.8783
vn -0.4694 -0.0743 0.8799
vn 0.8823 0.0104 0.4706
vn -0.8823 0.0104 -0.4706
vn -0.4686 -0.0935 0.8784
vn 0.4609 0.2022 -0.8641
vn 0.8809 0.0562 0.4699
vn 0.4705 0.0231 -0.8821
vn -0.4707 -0.0023 0.8823
vn 0.0000 1.0000 0.0000
vn -0.8809 0.0562 -0.4699
vn -0.9419 0.3359 -0.0000
vn 0.0000 0.2416 -0.9704
vn 0.9901 0.1400 -0.0000
vn 0.0000 0.2416 0.9704
vn 0.9955 0.0949 -0.0000
vn -0.9972 -0.0743 0.0000
vn 0.0000 0.0104 0.9999
vn -0.0000 0.0104 -0.9999
vn -0.9956 -0.0935 0.0000
vn 0.9793 0.2022 0.0000
vn -0.0000 0.0562 0.9984
vn 0.9997 0.0231 -0.0000
vn -1.0000 -0.0023 0.0000
vn 0.0000 0.0562 -0.9984
vn 0.9901 0.1401 -0.0000
usemtl Material.005
s off
f 2/1/1 3/2/1 1/3/1
f 4/4/2 7/5/2 3/2/2
f 8/6/3 5/7/3 7/5/3
f 5/7/4 2/8/4 1/9/4
f 7/5/5 1/10/5 3/11/5
f 20/12/6 12/13/6 19/14/6
f 18/15/7 10/16/7 17/17/7
f 18/18/8 12/13/8 9/19/8
f 17/17/9 11/20/9 20/12/9
f 9/21/10 15/22/10 10/16/10
f 11/20/11 13/23/11 12/13/11
f 9/19/12 13/23/12 16/24/12
f 8/6/13 19/14/13 6/25/13
f 2/1/14 17/17/14 4/4/14
f 2/8/8 19/14/8 18/18/8
f 4/4/9 20/12/9 8/6/9
f 13/23/15 15/22/15 16/24/15
f 10/16/16 14/26/16 11/20/16
f 22/27/17 23/28/17 21/29/17
f 24/30/18 27/31/18 23/28/18
f 27/31/19 26/32/19 25/33/19
f 25/33/20 22/34/20 21/35/20
f 27/31/5 21/36/5 23/37/5
f 40/38/21 32/39/21 39/40/21
f 38/41/22 30/42/22 37/43/22
f 38/44/23 32/39/23 29/45/23
f 37/43/24 31/46/24 40/38/24
f 29/47/25 35/48/25 30/42/25
f 31/46/26 33/49/26 32/39/26
f 29/45/27 33/49/27 36/50/27
f 28/51/28 39/40/28 26/32/28
f 22/27/29 37/43/29 24/30/29
f 22/34/23 39/40/23 38/44/23
f 24/30/24 40/38/24 28/51/24
f 36/50/15 34/52/15 35/48/15
f 30/42/30 34/52/30 31/46/30
f 2/1/1 4/4/1 3/2/1
f 4/4/2 8/6/2 7/5/2
f 8/6/3 6/25/3 5/7/3
f 5/7/4 6/25/4 2/8/4
f 7/5/5 5/7/5 1/10/5
f 20/12/6 11/20/6 12/13/6
f 18/15/7 9/21/7 10/16/7
f 18/18/8 19/14/8 12/13/8
f 17/17/9 10/16/9 11/20/9
f 9/21/10 16/53/10 15/22/10
f 11/20/11 14/26/11 13/23/11
f 9/19/12 12/13/12 13/23/12
f 8/6/13 20/12/13 19/14/13
f 2/1/14 18/15/14 17/17/14
f 2/8/8 6/25/8 19/14/8
f 4/4/9 17/17/9 20/12/9
f 13/23/15 14/26/15 15/22/15
f 10/16/16 15/22/16 14/26/16
f 22/27/17 24/30/17 23/28/17
f 24/30/18 28/51/18 27/31/18
f 27/31/31 28/51/31 26/32/31
f 25/33/20 26/32/20 22/34/20
f 27/31/5 25/33/5 21/36/5
f 40/38/21 31/46/21 32/39/21
f 38/41/22 29/47/22 30/42/22
f 38/44/23 39/40/23 32/39/23
f 37/43/24 30/42/24 31/46/24
f 29/47/25 36/54/25 35/48/25
f 31/46/26 34/52/26 33/49/26
f 29/45/27 32/39/27 33/49/27
f 28/51/28 40/38/28 39/40/28
f 22/27/29 38/41/29 37/43/29
f 22/34/23 26/32/23 39/40/23
f 24/30/24 37/43/24 40/38/24
f 36/50/15 33/49/15 34/52/15
f 30/42/30 35/48/30 34/52/30
